<svg xmlns="http://www.w3.org/2000/svg" viewBox="0 0 24 24">
  <path fill="currentColor" d="M22.1,4.6h-6.1v-1.4c0-1.1-.9-2-2-2h-4.1c-1.1,0-2,.9-2,2v1.4H1.9c-.4,0-.7.3-.7.7s.3.7.7.7h1.1l1.5,15.1c.1,1,1,1.8,2,1.8h11.1c1,0,1.9-.8,2-1.8l1.5-15.1h1.1c.4,0,.7-.3.7-.7s-.3-.7-.7-.7h0ZM9.3,3.2c0-.4.3-.7.7-.7h4.1c.4,0,.7.3.7.7v1.4h-5.4v-1.4ZM15.2,15.9c.3.3.3.7,0,1-.1.1-.3.2-.5.2-.2,0-.4,0-.5-.2l-2.3-2.2-2.3,2.2c-.1.1-.3.2-.5.2-.2,0-.4,0-.5-.2-.3-.3-.3-.7,0-1l2.2-2.2-2.2-2.2c-.3-.3-.3-.7,0-1,.3-.3.7-.3,1,0l2.3,2.2,2.3-2.2c.3-.3.7-.3,1,0,.3.3.3.7,0,1l-2.2,2.2,2.2,2.2Z"/>
</svg>
